<svg width="17" height="16" viewBox="0 0 17 16" fill="none" xmlns="http://www.w3.org/2000/svg">
<path d="M6.68468 9.19662C7.67043 10.1966 8.86317 10.9687 10.1791 11.4586L11.9594 10.0419C12.0122 10.0055 12.0748 9.98609 12.1388 9.98609C12.2029 9.98609 12.2655 10.0055 12.3183 10.0419L15.6238 12.1716C15.7493 12.2471 15.8556 12.3507 15.9341 12.4742C16.0127 12.5978 16.0615 12.7379 16.0766 12.8836C16.0917 13.0292 16.0728 13.1764 16.0212 13.3134C15.9697 13.4505 15.887 13.5737 15.7797 13.6733L14.2308 15.2033C14.009 15.4225 13.7363 15.5833 13.4372 15.6715C13.1381 15.7596 12.8219 15.7724 12.5166 15.7086C9.47183 15.0797 6.66538 13.6069 4.41801 11.4586C2.22052 9.28882 0.699862 6.52802 0.0405099 3.51106C-0.0246255 3.21056 -0.0110309 2.89832 0.0799764 2.60462C0.170984 2.31091 0.336317 2.0457 0.559954 1.83467L2.16551 0.285783C2.26487 0.183683 2.38603 0.105383 2.51994 0.0567452C2.65384 0.00810765 2.79701 -0.00960663 2.93873 0.00492878C3.08045 0.0194642 3.21705 0.0658726 3.33829 0.140679C3.45953 0.215486 3.56228 0.316752 3.63884 0.436895L5.8394 3.69995C5.87736 3.75119 5.89784 3.81327 5.89784 3.87703C5.89784 3.9408 5.87736 4.00288 5.8394 4.05412L4.38968 5.79662C4.89287 7.08623 5.67683 8.24765 6.68468 9.19662Z" fill="white"/>
</svg>
