<svg width="23" height="23" viewBox="0 0 23 23" fill="none" xmlns="http://www.w3.org/2000/svg">
<path d="M22.3801 9.95899C22.3794 9.95846 22.3789 9.95776 22.3784 9.95723L12.9962 0.575387C12.5962 0.175301 12.0646 -0.0449219 11.499 -0.0449219C10.9334 -0.0449219 10.4017 0.175301 10.0017 0.575387L0.624369 9.9525C0.62121 9.95566 0.617876 9.95899 0.614893 9.96215C-0.206337 10.7881 -0.204933 12.1282 0.618929 12.9521C0.995326 13.3287 1.49227 13.5466 2.02379 13.5696C2.04555 13.5717 2.06731 13.5728 2.08925 13.5728H2.46301V20.477C2.46301 21.8435 3.57483 22.9551 4.94126 22.9551H8.61188C8.98406 22.9551 9.28571 22.6533 9.28571 22.2813V16.8682C9.28571 16.2447 9.79301 15.7376 10.4165 15.7376H12.5815C13.205 15.7376 13.7121 16.2447 13.7121 16.8682V22.2813C13.7121 22.6533 14.0137 22.9551 14.3859 22.9551H18.0565C19.4232 22.9551 20.5348 21.8435 20.5348 20.477V13.5728H20.8815C21.4469 13.5728 21.9786 13.3525 22.3789 12.9523C23.2036 12.1272 23.204 10.7846 22.3801 9.95899ZM21.4259 11.9994C21.2804 12.1449 21.087 12.2251 20.8815 12.2251H19.861C19.4888 12.2251 19.1871 12.5267 19.1871 12.8989V20.477C19.1871 21.1003 18.68 21.6075 18.0565 21.6075H15.0598V16.8682C15.0598 15.5018 13.9481 14.3899 12.5815 14.3899H10.4165C9.04987 14.3899 7.93805 15.5018 7.93805 16.8682V21.6075H4.94126C4.31797 21.6075 3.81067 21.1003 3.81067 20.477V12.8989C3.81067 12.5267 3.50903 12.2251 3.13684 12.2251H2.13382C2.12329 12.2244 2.11294 12.2239 2.10223 12.2237C1.90149 12.2202 1.7132 12.1405 1.57212 11.9993C1.27205 11.6992 1.27205 11.2108 1.57212 10.9106C1.57229 10.9106 1.57229 10.9104 1.57247 10.9102L1.57299 10.9097L10.9548 1.52822C11.1001 1.38275 11.2933 1.30274 11.499 1.30274C11.7045 1.30274 11.8977 1.38275 12.0431 1.52822L21.4229 10.9078C21.4243 10.9092 21.4259 10.9106 21.4273 10.912C21.7258 11.2126 21.7252 11.6999 21.4259 11.9994Z" fill="white"/>
</svg>
