<svg width="40" height="33" viewBox="0 0 40 33" fill="none" xmlns="http://www.w3.org/2000/svg">
<path d="M0.0669436 14.4672C-0.333056 19.2672 1.06694 23.2672 4.06694 26.8672C7.06694 30.4672 11.0669 32.0672 15.8669 32.0672H35.8669C36.8669 32.0672 37.8669 31.6672 38.6669 30.8672C39.4669 30.0672 39.8669 29.0672 39.8669 28.0672V26.4672C39.8669 25.2672 39.6669 23.8672 39.4669 22.0672H23.0669C21.0669 22.0672 19.4669 21.2672 18.0669 19.8672C16.6669 18.4672 15.8669 16.6672 15.8669 14.8672C15.8669 11.6672 17.2669 9.46723 20.2669 8.26723L29.8669 4.06723C26.4669 1.66723 22.4669 0.267226 17.8669 0.0672258C13.4669 -0.332774 9.46694 1.06723 5.86694 3.86723C2.26694 6.66723 0.466944 10.0672 0.0669436 14.4672ZM19.8669 14.8672C19.8669 15.6672 20.2669 16.4672 20.8669 17.0672C21.4669 17.6672 22.2669 18.0672 23.0669 18.0672H38.6669C37.4669 13.6672 35.6669 10.0672 33.0669 7.26723L21.8669 11.8672C20.4669 12.2672 19.8669 13.2672 19.8669 14.8672Z" fill="#121214"/>
</svg>
