<svg width="194" height="23" viewBox="0 0 194 23" fill="none" xmlns="http://www.w3.org/2000/svg">
<path d="M164.04 11.682L163.428 12.006C163.188 11.454 162.762 11.178 162.15 11.178C161.766 11.178 161.46 11.298 161.232 11.538C161.016 11.778 160.908 12.048 160.908 12.348C160.908 12.576 160.974 12.774 161.106 12.942C161.238 13.098 161.376 13.218 161.52 13.302C161.664 13.374 161.892 13.47 162.204 13.59C162.252 13.602 162.366 13.65 162.546 13.734C162.738 13.806 162.864 13.854 162.924 13.878C162.984 13.902 163.086 13.95 163.23 14.022C163.386 14.082 163.5 14.142 163.572 14.202C163.644 14.25 163.728 14.316 163.824 14.4C163.932 14.484 164.022 14.574 164.094 14.67C164.346 14.982 164.472 15.378 164.472 15.858C164.472 16.638 164.232 17.226 163.752 17.622C163.284 18.006 162.726 18.198 162.078 18.198C161.454 18.198 160.914 18.024 160.458 17.676C160.002 17.328 159.696 16.854 159.54 16.254L160.242 16.038C160.362 16.506 160.59 16.872 160.926 17.136C161.274 17.388 161.658 17.514 162.078 17.514C162.546 17.514 162.936 17.364 163.248 17.064C163.56 16.752 163.716 16.362 163.716 15.894C163.716 15.51 163.596 15.216 163.356 15.012C163.116 14.796 162.69 14.562 162.078 14.31C161.238 13.962 160.704 13.638 160.476 13.338C160.26 13.05 160.152 12.732 160.152 12.384C160.152 11.832 160.338 11.382 160.71 11.034C161.082 10.674 161.55 10.494 162.114 10.494C163.062 10.494 163.704 10.89 164.04 11.682ZM172.194 11.43V12.384C171.498 11.58 170.652 11.178 169.656 11.178C168.768 11.178 168.036 11.484 167.46 12.096C166.884 12.696 166.596 13.452 166.596 14.364C166.596 15.348 166.902 16.122 167.514 16.686C168.126 17.238 168.828 17.514 169.62 17.514C170.592 17.514 171.48 17.076 172.284 16.2V17.172C171.516 17.856 170.622 18.198 169.602 18.198C168.498 18.198 167.592 17.838 166.884 17.118C166.188 16.386 165.84 15.474 165.84 14.382C165.84 13.266 166.188 12.342 166.884 11.61C167.58 10.866 168.504 10.494 169.656 10.494C170.604 10.494 171.45 10.806 172.194 11.43ZM174.271 18V10.656H174.991V11.61C175.315 10.866 175.855 10.494 176.611 10.494C176.899 10.494 177.157 10.554 177.385 10.674L177.025 11.322C176.893 11.226 176.713 11.178 176.485 11.178C176.137 11.178 175.849 11.28 175.621 11.484C175.405 11.676 175.255 11.952 175.171 12.312C175.099 12.66 175.051 12.954 175.027 13.194C175.003 13.434 174.991 13.722 174.991 14.058V18H174.271ZM179.19 11.61C179.934 10.866 180.852 10.494 181.944 10.494C183.036 10.494 183.948 10.866 184.68 11.61C185.424 12.342 185.796 13.254 185.796 14.346C185.796 15.438 185.424 16.356 184.68 17.1C183.948 17.832 183.036 18.198 181.944 18.198C180.852 18.198 179.934 17.832 179.19 17.1C178.458 16.356 178.092 15.438 178.092 14.346C178.092 13.254 178.458 12.342 179.19 11.61ZM179.73 16.596C180.33 17.208 181.068 17.514 181.944 17.514C182.82 17.514 183.552 17.208 184.14 16.596C184.74 15.984 185.04 15.234 185.04 14.346C185.04 13.458 184.74 12.708 184.14 12.096C183.552 11.484 182.82 11.178 181.944 11.178C181.068 11.178 180.33 11.484 179.73 12.096C179.142 12.708 178.848 13.458 178.848 14.346C178.848 15.234 179.142 15.984 179.73 16.596ZM187.911 4.878H188.631V18H187.911V4.878ZM191.216 4.878H191.936V18L191.216 18V4.878Z" fill="#121214"/>
<line x1="145" y1="14.5" x2="91" y2="14.5" stroke="#121214"/>
<circle cx="50" cy="14" r="4" transform="rotate(90 50 14)" fill="#121214"/>
<circle cx="27" cy="14" r="4" transform="rotate(90 27 14)" fill="#121214"/>
<circle cx="4" cy="14" r="4" transform="rotate(90 4 14)" fill="#037E8C"/>
</svg>
